<?xml version="1.0" ?><!DOCTYPE svg  PUBLIC '-//W3C//DTD SVG 1.1//EN'  'http://www.w3.org/Graphics/SVG/1.1/DTD/svg11.dtd'><svg enable-background="new 0 0 91 91" height="91px" id="Layer_1" version="1.1" viewBox="0 0 91 91" width="91px" xml:space="preserve" xmlns="http://www.w3.org/2000/svg" xmlns:xlink="http://www.w3.org/1999/xlink"><g><path d="M24.212,40.413v24.447h-5.494v3.4h54.602v-3.4h-6.207V40.411l5.063,3.276l1.848-2.855l-27.434-17.75   c-0.563-0.363-1.285-0.363-1.848,0l-27.439,17.75l1.848,2.855L24.212,40.413z M49.667,64.859h-7.029V48.364h7.029V64.859z    M45.665,26.534l18.047,11.677v26.648H53.067V46.664c0-0.939-0.762-1.7-1.699-1.7H40.937c-0.938,0-1.699,0.761-1.699,1.7v18.195   H27.612V38.213L45.665,26.534z" fill="#010101"/></g></svg>